<svg width="145" height="46" viewBox="0 0 145 46" fill="none" xmlns="http://www.w3.org/2000/svg">
<rect width="145" height="46" rx="8" fill="#FFBC57"/>
<path d="M32 13C26.5 13 22 17.5 22 23C22 28.5 26.5 33 32 33C37.5 33 42 28.5 42 23C42 17.5 37.5 13 32 13ZM35.7 25.3C36.1 25.7 36.1 26.3 35.7 26.7C35.3 27.1 34.7 27.1 34.3 26.7L32 24.4L29.7 26.7C29.3 27.1 28.7 27.1 28.3 26.7C27.9 26.3 27.9 25.7 28.3 25.3L30.6 23L28.3 20.7C27.9 20.3 27.9 19.7 28.3 19.3C28.7 18.9 29.3 18.9 29.7 19.3L32 21.6L34.3 19.3C34.7 18.9 35.3 18.9 35.7 19.3C36.1 19.7 36.1 20.3 35.7 20.7L33.4 23L35.7 25.3Z" fill="white"/>
<path d="M65.666 29L60.137 22.312L65.286 16.327H62.531L57.572 22.369V16.327H55.349V29H57.572V24.953L58.674 23.661L62.93 29H65.666ZM74.4145 29V22.92C74.4145 20.45 72.6285 19.595 70.5955 19.595C69.1325 19.595 67.8025 20.07 66.7385 21.077L67.5555 22.464C68.3535 21.685 69.2465 21.305 70.2725 21.305C71.5455 21.305 72.4195 21.951 72.4195 23.015V24.383C71.7545 23.604 70.6905 23.205 69.4555 23.205C67.9545 23.205 66.2635 24.079 66.2635 26.188C66.2635 28.221 67.9545 29.228 69.4555 29.228C70.6715 29.228 71.7355 28.791 72.4195 28.012V29H74.4145ZM70.2345 27.86C69.1135 27.86 68.2775 27.214 68.2775 26.226C68.2775 25.219 69.1135 24.573 70.2345 24.573C71.1085 24.573 71.9635 24.896 72.4195 25.523V26.91C71.9635 27.537 71.1085 27.86 70.2345 27.86ZM80.668 29V21.571H83.309V19.823H76.051V21.571H78.673V29H80.668ZM92.5424 29V22.92C92.5424 20.45 90.7564 19.595 88.7234 19.595C87.2604 19.595 85.9304 20.07 84.8664 21.077L85.6834 22.464C86.4814 21.685 87.3744 21.305 88.4004 21.305C89.6734 21.305 90.5474 21.951 90.5474 23.015V24.383C89.8824 23.604 88.8184 23.205 87.5834 23.205C86.0824 23.205 84.3914 24.079 84.3914 26.188C84.3914 28.221 86.0824 29.228 87.5834 29.228C88.7994 29.228 89.8634 28.791 90.5474 28.012V29H92.5424ZM88.3624 27.86C87.2414 27.86 86.4054 27.214 86.4054 26.226C86.4054 25.219 87.2414 24.573 88.3624 24.573C89.2364 24.573 90.0914 24.896 90.5474 25.523V26.91C90.0914 27.537 89.2364 27.86 88.3624 27.86ZM94.1789 29.228C96.1929 29.228 97.3329 27.841 97.6939 24.516L98.0169 21.571H101.342V29H103.337V19.823H96.2499L95.6989 24.288C95.3949 26.701 94.9579 27.594 94.1789 27.594V29.228ZM110.07 29.228C113.015 29.228 114.801 27.043 114.801 24.402C114.801 21.78 113.015 19.595 110.07 19.595C107.163 19.595 105.358 21.78 105.358 24.402C105.358 27.043 107.163 29.228 110.07 29.228ZM110.07 27.461C108.379 27.461 107.429 26.036 107.429 24.402C107.429 22.787 108.379 21.362 110.07 21.362C111.78 21.362 112.73 22.787 112.73 24.402C112.73 26.036 111.78 27.461 110.07 27.461ZM123.773 19.823H116.819V29H118.814V21.571H123.773V19.823Z" fill="white"/>
</svg>
